<svg width="484" height="290" viewBox="0 0 484 290" fill="none" xmlns="http://www.w3.org/2000/svg">
<path d="M40.3515 94.6826C40.3515 85.9534 42.24 78.1895 46.017 71.3908C49.7941 64.5082 55.04 59.1784 61.7548 55.4013C68.5534 51.5403 76.2334 49.6098 84.7948 49.6098C95.2866 49.6098 104.268 52.3797 111.738 57.9193C119.208 63.459 124.202 71.0131 126.72 80.5816H103.05C101.288 76.8885 98.7698 74.0767 95.4964 72.1462C92.3069 70.2157 88.6557 69.2505 84.5429 69.2505C77.9121 69.2505 72.5403 71.5587 68.4275 76.1751C64.3148 80.7915 62.2584 86.9607 62.2584 94.6826C62.2584 102.405 64.3148 108.574 68.4275 113.19C72.5403 117.807 77.9121 120.115 84.5429 120.115C88.6557 120.115 92.3069 119.15 95.4964 117.219C98.7698 115.289 101.288 112.477 103.05 108.784H126.72C124.202 118.352 119.208 125.906 111.738 131.446C104.268 136.902 95.2866 139.63 84.7948 139.63C76.2334 139.63 68.5534 137.741 61.7548 133.964C55.04 130.103 49.7941 124.773 46.017 117.974C42.24 111.176 40.3515 103.412 40.3515 94.6826ZM161.433 122.381H189.635V139H139.904V50.617H161.433V122.381ZM221.433 50.617V139H199.904V50.617H221.433ZM304.393 79.0708C304.393 84.1908 303.218 88.8911 300.868 93.1718C298.517 97.3685 294.908 100.768 290.04 103.37C285.172 105.972 279.129 107.273 271.91 107.273H258.565V139H237.035V50.617H271.91C278.961 50.617 284.92 51.8341 289.788 54.2682C294.656 56.7023 298.308 60.0597 300.742 64.3403C303.176 68.621 304.393 73.5311 304.393 79.0708ZM270.273 90.1502C274.386 90.1502 277.45 89.1849 279.464 87.2544C281.479 85.3239 282.486 82.5961 282.486 79.0708C282.486 75.5456 281.479 72.8177 279.464 70.8872C277.45 68.9567 274.386 67.9915 270.273 67.9915H258.565V90.1502H270.273Z" fill="#C264F4"/>
<path d="M327.848 25.8085V70H317.083V25.8085H327.848ZM367.439 25.8085V34.4328H355.73V70H344.966V34.4328H333.257V25.8085H367.439Z" fill="#222222"/>
<path d="M39.4551 237.285C36.6816 237.285 34.2467 236.769 32.1505 235.737C30.0542 234.673 28.4418 233.237 27.313 231.432C26.1843 229.626 25.6199 227.61 25.6199 225.385C25.6199 223.482 26.0069 221.821 26.7809 220.402C27.5549 218.951 28.5708 217.838 29.8285 217.064L26.0069 217.064L26.0069 208.792L53 208.792L53 217.064L49.1784 217.064C50.4361 217.87 51.452 218.999 52.226 220.45C53 221.869 53.387 223.53 53.387 225.433C53.387 227.626 52.8226 229.626 51.6939 231.432C50.5329 233.237 48.9043 234.673 46.808 235.737C44.6795 236.769 42.2286 237.285 39.4551 237.285ZM39.5034 217.064C37.4395 217.064 35.8108 217.645 34.6176 218.806C33.4244 219.934 32.8277 221.321 32.8277 222.966C32.8277 224.611 33.4244 226.014 34.6176 227.175C35.7786 228.303 37.3911 228.868 39.4551 228.868C41.5191 228.868 43.1638 228.303 44.3893 227.175C45.5825 226.014 46.1792 224.611 46.1792 222.966C46.1792 221.321 45.5825 219.934 44.3893 218.806C43.1961 217.645 41.5674 217.064 39.5034 217.064ZM25.7166 186.36C25.7166 183.2 26.7486 180.684 28.8126 178.814C30.8444 176.911 33.6501 175.96 37.2298 175.96L53 175.96L53 184.183L38.3424 184.183C36.5365 184.183 35.1336 184.651 34.1338 185.586C33.1341 186.521 32.6342 187.779 32.6342 189.359C32.6342 190.94 33.1341 192.197 34.1338 193.133C35.1336 194.068 36.5365 194.536 38.3425 194.536L53 194.536L53 202.808L26.0069 202.808L26.0069 194.536L29.5866 194.536C28.3934 193.697 27.4581 192.568 26.7809 191.149C26.0714 189.73 25.7166 188.134 25.7166 186.36ZM39.4551 171.856C36.6816 171.856 34.2467 171.34 32.1505 170.308C30.0542 169.244 28.4418 167.809 27.313 166.003C26.1843 164.197 25.6199 162.181 25.6199 159.956C25.6199 158.182 25.9908 156.57 26.7325 155.118C27.4743 153.635 28.474 152.474 29.7317 151.635L17.2027 151.635L17.2027 143.363L53 143.363L53 151.635L49.13 151.635C50.42 152.409 51.452 153.522 52.226 154.973C53 156.392 53.387 158.053 53.387 159.956C53.387 162.181 52.8226 164.197 51.6939 166.003C50.5329 167.809 48.9043 169.244 46.808 170.308C44.6795 171.34 42.2286 171.856 39.4551 171.856ZM39.5034 151.635C37.4395 151.635 35.8108 152.216 34.6176 153.377C33.4243 154.506 32.8277 155.892 32.8277 157.537C32.8277 159.182 33.4243 160.585 34.6176 161.746C35.7786 162.875 37.3911 163.439 39.4551 163.439C41.5191 163.439 43.1638 162.875 44.3893 161.746C45.5825 160.585 46.1792 159.182 46.1792 157.537C46.1792 155.892 45.5825 154.506 44.3893 153.377C43.196 152.216 41.5674 151.635 39.5034 151.635Z" fill="#222222"/>
<path d="M99.5882 240.029C93.1253 240.029 87.3338 238.98 82.2138 236.881C77.0938 234.783 72.981 231.677 69.8754 227.565C66.8538 223.452 65.259 218.5 65.0912 212.708H88.0053C88.341 215.982 89.4741 218.5 91.4046 220.262C93.3351 221.941 95.8531 222.78 98.9587 222.78C102.148 222.78 104.666 222.067 106.513 220.64C108.359 219.129 109.283 217.073 109.283 214.471C109.283 212.289 108.527 210.484 107.016 209.057C105.59 207.63 103.785 206.455 101.603 205.532C99.5043 204.609 96.4826 203.559 92.5377 202.384C86.8302 200.622 82.1718 198.859 78.5626 197.096C74.9534 195.334 71.8479 192.732 69.2459 189.29C66.6439 185.849 65.343 181.359 65.343 175.819C65.343 167.593 68.3226 161.172 74.282 156.556C80.2413 151.856 88.0053 149.506 97.5738 149.506C107.31 149.506 115.158 151.856 121.117 156.556C127.077 161.172 130.266 167.635 130.686 175.945H107.394C107.226 173.091 106.177 170.867 104.247 169.272C102.316 167.593 99.84 166.754 96.8184 166.754C94.2164 166.754 92.118 167.468 90.5233 168.894C88.9285 170.237 88.1312 172.21 88.1312 174.812C88.1312 177.666 89.4741 179.89 92.16 181.485C94.8459 183.079 99.0426 184.8 104.75 186.647C110.458 188.577 115.074 190.424 118.599 192.186C122.209 193.949 125.314 196.509 127.916 199.866C130.518 203.224 131.819 207.546 131.819 212.834C131.819 217.87 130.518 222.445 127.916 226.557C125.398 230.67 121.705 233.944 116.837 236.378C111.969 238.812 106.219 240.029 99.5882 240.029ZM221.616 150.765V239.148H200.087V202.762H166.597V239.148H145.068V150.765H166.597V185.388H200.087V150.765H221.616ZM258.688 150.765V239.148H237.158V150.765H258.688ZM341.647 179.218C341.647 184.338 340.472 189.039 338.122 193.319C335.771 197.516 332.162 200.915 327.294 203.517C322.426 206.119 316.383 207.42 309.164 207.42H295.819V239.148H274.29V150.765H309.164C316.215 150.765 322.174 151.982 327.042 154.416C331.911 156.85 335.562 160.207 337.996 164.488C340.43 168.769 341.647 173.679 341.647 179.218ZM307.528 190.298C311.64 190.298 314.704 189.332 316.718 187.402C318.733 185.471 319.74 182.744 319.74 179.218C319.74 175.693 318.733 172.965 316.718 171.035C314.704 169.104 311.64 168.139 307.528 168.139H295.819V190.298H307.528ZM401.065 150.765V239.148H379.535V150.765H401.065ZM480.247 150.765V168.013H456.829V239.148H435.3V168.013H411.882V150.765H480.247Z" fill="#222222"/>
</svg>
